<svg width="21" height="13" viewBox="0 0 21 13" fill="none" xmlns="http://www.w3.org/2000/svg">
<path d="M20.8061 11.1153C20.8061 11.0322 20.723 11.0322 20.723 10.9492C20.3909 10.285 19.6437 9.4548 18.6475 8.54155C18.1493 8.12643 17.9002 7.79434 17.7342 7.62829C17.4851 7.2962 17.4851 7.04714 17.5682 6.71505C17.6512 6.46598 17.9833 6.05085 18.5644 5.30365C18.8965 4.88853 19.0626 4.63947 19.3116 4.3904C20.557 2.72995 21.1381 1.65064 20.9721 1.1525L20.8891 1.06949C20.8061 0.986464 20.723 0.903444 20.557 0.903444C20.3909 0.820421 20.1419 0.820421 19.8928 0.903444H16.7379C16.6549 0.903444 16.6549 0.903444 16.4888 0.903444C16.4058 0.903444 16.3228 0.903444 16.3228 0.903444H16.2398H16.1568L16.0737 0.986459C15.9907 1.06948 15.9907 1.06948 15.9907 1.1525C15.6586 2.06575 15.2435 2.81296 14.8284 3.64319C14.5793 4.0583 14.3303 4.47343 14.0812 4.80552C13.8321 5.13761 13.6661 5.38667 13.5 5.55272C13.334 5.71877 13.1679 5.80179 13.0849 5.96783C13.0019 6.05086 12.8358 6.13388 12.8358 6.05086C12.7528 6.05086 12.6698 6.05086 12.6698 5.96783C12.5868 5.88481 12.5037 5.80179 12.4207 5.71876C12.3377 5.63574 12.3377 5.46969 12.2547 5.30365C12.2547 5.1376 12.2547 4.97156 12.2547 4.88853C12.2547 4.80551 12.2547 4.55645 12.2547 4.3904C12.2547 4.14133 12.2547 3.97528 12.2547 3.89226C12.2547 3.64319 12.2547 3.31111 12.2547 2.97902C12.2547 2.64692 12.2547 2.39785 12.2547 2.2318C12.2547 2.06576 12.2547 1.81669 12.2547 1.65064C12.2547 1.40158 12.2547 1.23553 12.2547 1.1525C12.2547 1.06948 12.1717 0.903439 12.1717 0.820416C12.0886 0.737393 12.0056 0.654367 11.9226 0.571344C11.8396 0.488321 11.6735 0.488324 11.5905 0.405301C11.1754 0.322278 10.6772 0.239258 10.0961 0.239258C8.76771 0.239258 7.85446 0.322283 7.52236 0.488329C7.35632 0.571352 7.19027 0.65437 7.10725 0.820416C6.9412 0.986462 6.9412 1.06949 7.02422 1.06949C7.43934 1.15251 7.77143 1.31855 7.93748 1.56762L8.02051 1.73367C8.10353 1.8167 8.10351 1.98273 8.18654 2.2318C8.26956 2.48087 8.26957 2.72994 8.26957 3.06203C8.26957 3.56017 8.26957 4.05831 8.26957 4.3904C8.26957 4.80552 8.18654 5.05458 8.18654 5.30365C8.18654 5.55272 8.10353 5.71877 8.02051 5.80179C7.93748 5.96784 7.93747 6.05086 7.85445 6.05086C7.85445 6.05086 7.85445 6.13388 7.77142 6.13388C7.6884 6.13388 7.60538 6.21691 7.43934 6.21691C7.35631 6.21691 7.19027 6.13388 7.10725 6.05086C6.9412 5.96784 6.77516 5.80179 6.69213 5.63575C6.52609 5.4697 6.36003 5.22063 6.19399 4.88853C6.02794 4.55644 5.77886 4.22436 5.61282 3.72622L5.44679 3.39413C5.36376 3.22809 5.19772 2.89599 5.03167 2.48087C4.86562 2.06576 4.69957 1.73367 4.53353 1.31856C4.4505 1.15251 4.36749 1.06948 4.28447 0.986459H4.20144C4.20144 0.986459 4.11841 0.903444 4.03538 0.903444C3.95236 0.903444 3.86935 0.820416 3.78632 0.820416H0.797488C0.465396 0.820416 0.299352 0.903436 0.216329 0.986459L0.133301 1.06949C0.133301 1.06949 0.133301 1.15251 0.133301 1.23553C0.133301 1.31855 0.133306 1.40157 0.216329 1.56762C0.631444 2.56389 1.12958 3.56017 1.62772 4.55645C2.12586 5.4697 2.624 6.29993 2.95609 6.88109C3.37121 7.46225 3.7033 8.04341 4.11841 8.54155C4.53353 9.03969 4.78259 9.37178 4.86561 9.53782C5.03166 9.70387 5.11468 9.78689 5.1977 9.86991L5.44679 10.119C5.61283 10.285 5.8619 10.5341 6.19399 10.7832C6.52608 11.0322 6.94119 11.2813 7.35631 11.5304C7.77142 11.7794 8.26957 11.9455 8.76771 12.1115C9.34887 12.2776 9.847 12.3606 10.3451 12.2776H11.5905C11.8396 12.2776 12.0056 12.1946 12.1717 12.0285L12.2547 11.9455C12.2547 11.8625 12.3377 11.8625 12.3377 11.7794C12.3377 11.6964 12.3377 11.6134 12.3377 11.4474C12.3377 11.1153 12.3377 10.8662 12.4207 10.6171C12.5037 10.3681 12.5038 10.202 12.5868 10.036C12.6698 9.86992 12.7528 9.78689 12.8358 9.70387C12.9189 9.62084 13.0019 9.53782 13.0019 9.53782H13.0849C13.2509 9.4548 13.5 9.53782 13.6661 9.70387C13.9151 9.86991 14.1642 10.119 14.3302 10.3681C14.4963 10.6171 14.7454 10.8662 15.0775 11.1983C15.4096 11.5304 15.6586 11.7794 15.8247 11.8625L16.0737 12.0285C16.2398 12.1115 16.4058 12.1946 16.6549 12.2776C16.904 12.3606 17.07 12.3606 17.236 12.3606L20.0589 12.2776C20.3079 12.2776 20.557 12.1946 20.723 12.1115C20.8891 12.0285 20.9721 11.9455 20.9721 11.7794C20.9721 11.6964 20.9721 11.5304 20.9721 11.4474C20.806 11.2813 20.8061 11.1983 20.8061 11.1153Z" fill="white"/>
</svg>
